HIERARCHY
ROOT Hips
{
	OFFSET -3.958830 18.904000 13.208200
	CHANNELS 6 Xposition Yposition Zposition Zrotation Yrotation Xrotation 
	JOINT LHipJoint
	{
		OFFSET 0.000000 0.000000 0.000000
		CHANNELS 3 Zrotation Yrotation Xrotation
		JOINT LeftUpLeg
		{
			OFFSET 1.800000 -1.400000 0.085000
			CHANNELS 3 Zrotation Yrotation Xrotation
			JOINT LeftLeg
			{
				OFFSET 2.215000 -6.000000 0.000000
				CHANNELS 3 Zrotation Yrotation Xrotation
				JOINT LeftFoot
				{
					OFFSET 2.500000 -6.900000 0.000000
					CHANNELS 3 Zrotation Yrotation Xrotation
					JOINT LeftToeBase
					{
						OFFSET 0.200000 -0.500000 1.950000
						CHANNELS 3 Zrotation Yrotation Xrotation
						End Site
						{
							OFFSET 0.000000 0.000000 0.000000
						}
					}
				}
			}
		}
	}
	JOINT RHipJoint
	{
		OFFSET 0.000000 0.000000 0.000000
		CHANNELS 3 Zrotation Yrotation Xrotation
		JOINT RightUpLeg
		{
			OFFSET -1.800000 -1.400000 0.085000
			CHANNELS 3 Zrotation Yrotation Xrotation
			JOINT RightLeg
			{
				OFFSET -2.215000 -6.000000 0.000000
				CHANNELS 3 Zrotation Yrotation Xrotation
				JOINT RightFoot
				{
					OFFSET -2.500000 -6.900000 0.000000
					CHANNELS 3 Zrotation Yrotation Xrotation
					JOINT RightToeBase
					{
						OFFSET -0.200000 -0.500000 1.950000
						CHANNELS 3 Zrotation Yrotation Xrotation
						End Site
						{
							OFFSET 0.000000 0.000000 0.000000
						}
					}
				}
			}
		}
	}
	JOINT LowerBack
	{
		OFFSET 0.000000 0.000000 0.000000
		CHANNELS 3 Zrotation Yrotation Xrotation
		JOINT Spine
		{
			OFFSET -0.087000 1.940000 -0.288900
			CHANNELS 3 Zrotation Yrotation Xrotation
			JOINT Spine1
			{
				OFFSET 0.000000 1.950000 0.060000
				CHANNELS 3 Zrotation Yrotation Xrotation
				JOINT Neck
				{
					OFFSET 0.000000 0.000000 0.000000
					CHANNELS 3 Zrotation Yrotation Xrotation
					JOINT Neck1
					{
						OFFSET 0.000000 1.600000 0.340000
						CHANNELS 3 Zrotation Yrotation Xrotation
						JOINT Head
						{
							OFFSET 0.000000 1.667000 -0.240000
							CHANNELS 3 Zrotation Yrotation Xrotation
							End Site
							{
								OFFSET 0.000000 0.000000 0.000000
							}
						}
					}
				}
				JOINT LeftShoulder
				{
					OFFSET 0.000000 0.000000 0.000000
					CHANNELS 3 Zrotation Yrotation Xrotation
					JOINT LeftArm
					{
						OFFSET 2.700000 1.550000 -0.730000
						CHANNELS 3 Zrotation Yrotation Xrotation
						JOINT LeftForeArm
						{
							OFFSET 5.450000 0.000000 0.000000
							CHANNELS 3 Zrotation Yrotation Xrotation
							JOINT LeftHand
							{
								OFFSET 3.450000 0.000000 0.000000
								CHANNELS 3 Zrotation Yrotation Xrotation
								JOINT LeftHandIndex1
								{
									OFFSET 0.750000 0.000000 0.000000
									CHANNELS 3 Zrotation Yrotation Xrotation
									End Site
									{
										OFFSET 0.000000 0.000000 0.000000
									}
								}
							}
						}
					}
				}
				JOINT RightShoulder
				{
					OFFSET 0.000000 0.000000 0.000000
					CHANNELS 3 Zrotation Yrotation Xrotation
					JOINT RightArm
					{
						OFFSET -2.700000 1.550000 -0.730000
						CHANNELS 3 Zrotation Yrotation Xrotation
						JOINT RightForeArm
						{
							OFFSET -5.450000 0.000000 0.000000
							CHANNELS 3 Zrotation Yrotation Xrotation
							JOINT RightHand
							{
								OFFSET -3.450000 0.000000 0.000000
								CHANNELS 3 Zrotation Yrotation Xrotation
								JOINT RightHandIndex1
								{
									OFFSET -0.750000 0.000000 0.000000
									CHANNELS 3 Zrotation Yrotation Xrotation
									End Site
									{
										OFFSET 0.000000 0.000000 0.000000
									}
								}
							}
						}
					}
				}
			}
		}
	}
}
MOTION
Frames: 8
Frame Time: 0.016667
0.037190 18.369600 -0.967450 -3.521888 -4.582843 -10.257577 -15.057788 13.405726 2.336316 5.958898 -0.041841 -2.181491 -6.445457 8.074090 21.222158 -0.320960 5.591437 2.656506 0.181590 -0.144740 0.237540 18.489664 -9.799634 4.281694 1.552419 10.501575 -35.771194 -2.090415 -9.842053 65.408430 -1.548500 -9.587753 1.113438 -0.062460 0.197900 0.103500 -3.978353 -2.545786 -8.152517 11.638533 -5.776160 23.336975 -6.446964 -3.494861 10.997114 2.960395 -1.481420 -10.866664 -9.404596 6.825112 64.439012 -2.626240 4.878080 -0.263010 -12.194873 -2.985185 2.861263 -33.330609 -0.986405 -6.747805 -60.284947 -55.658854 27.364803 -3.650700 3.231571 0.696390 0.035970 0.016380 0.029620 6.889887 2.292982 5.778432 46.642449 -4.175773 -12.598175 47.500528 37.923511 10.571478 2.045983 -1.474438 -0.315000 0.288210 0.180590 -0.274790 
0.049640 18.330980 -0.996180 -4.241389 -5.122230 -10.072347 -15.024912 13.257275 2.260239 6.739995 -0.112244 -2.439528 -7.043604 8.230561 20.993939 -0.342962 5.614881 2.619516 0.209980 -0.123020 0.274130 18.556752 -9.618194 4.539490 2.070966 11.813891 -37.611768 -1.990063 -10.193354 67.412790 -1.666246 -9.925290 0.992292 -0.055070 0.152050 0.127050 -4.121785 -2.418341 -8.243279 13.294106 -6.167360 24.230115 -6.886783 -3.534470 10.648897 3.158019 -1.521299 -10.857336 -9.408662 6.798613 65.335184 -3.311640 4.961310 -1.542110 -13.020075 -3.456025 2.862570 -33.967406 -0.459876 -7.508892 -57.551024 -54.048079 24.621366 -3.629209 3.210764 0.730830 0.008870 0.055430 0.013840 7.288812 2.694930 5.698179 48.224699 -3.531402 -13.082010 45.189804 37.290479 9.539611 2.060425 -1.435139 -0.297610 0.269760 0.178450 -0.290510 
0.075340 18.226160 -1.061250 -4.983204 -6.319011 -10.042753 -15.003083 13.024696 2.090783 7.085503 0.010888 -2.313549 -6.735859 7.952902 20.006807 -0.376929 5.431649 2.646229 0.260820 -0.078670 0.313430 18.656839 -9.163225 5.142620 1.501986 14.744273 -42.463594 -1.167249 -11.764822 73.050375 -1.964884 -10.962031 0.667779 -0.044770 0.078210 0.148290 -4.298502 -2.380241 -8.459336 15.368651 -7.251609 27.677515 -7.677558 -3.948692 8.713410 3.145950 -2.671055 -10.773312 -11.877173 8.389531 65.136811 -3.122010 4.692590 -3.846930 -14.526535 -3.736851 2.871458 -34.996494 1.585392 -9.079727 -52.259653 -50.351582 19.380650 -3.564573 3.195041 0.776070 -0.056500 0.108700 -0.003010 8.699860 3.796828 5.293913 50.470267 -1.748714 -13.343758 40.317104 34.873907 7.373875 2.118550 -1.354842 -0.259470 0.236120 0.169200 -0.299280 
0.124880 18.068540 -1.123630 -6.642699 -7.523594 -9.188547 -14.966793 12.641970 1.842960 8.246538 0.030213 -2.520239 -6.848689 7.671545 18.295079 -0.436629 5.238284 2.687903 0.292370 -0.038430 0.321420 18.810596 -8.575607 5.890460 -0.590140 18.446372 -49.456843 2.097563 -15.755865 78.745379 -2.336698 -12.376661 0.285445 -0.023530 0.044220 0.159860 -4.596772 -2.192735 -8.657004 19.260750 -8.936618 30.198605 -9.083363 -4.361998 6.799895 3.242257 -4.031840 -10.179033 -14.517127 10.173839 63.403151 -3.157330 4.488560 -6.637280 -16.266487 -3.399389 2.397508 -36.469796 2.567585 -9.869578 -45.788852 -45.031852 13.807147 -3.549354 3.132448 0.798400 -0.088080 0.133720 -0.015300 10.002214 4.194345 4.583330 52.268806 0.336128 -12.814301 35.918961 31.696381 5.532495 2.154632 -1.267686 -0.238890 0.233350 0.176550 -0.299760 
0.167520 17.844980 -1.177590 -8.541814 -8.223953 -7.062751 -14.945550 12.216151 1.564892 9.073384 -0.189657 -4.144453 -6.782137 7.391228 17.424205 -0.443684 5.012891 2.779099 0.285370 -0.028730 0.289190 18.966284 -7.946632 6.694341 -4.426662 22.211135 -59.274781 6.317217 -21.353194 84.364187 -2.782422 -14.180391 -0.152623 -0.027410 0.072500 0.177300 -4.886458 -1.998330 -8.857581 23.346455 -10.605108 30.770277 -10.218993 -4.480408 4.928161 3.235970 -5.096602 -9.371822 -15.963088 10.726453 59.844724 -3.572630 4.148260 -7.053580 -18.322586 -3.054797 1.905489 -37.282614 3.195287 -9.877610 -39.579999 -39.984449 9.670766 -3.571034 3.103322 0.744280 -0.070610 0.118640 0.003160 11.726713 4.499490 3.863639 53.762413 2.151337 -11.800107 30.216760 28.566476 3.765358 2.210915 -1.220943 -0.210220 0.221770 0.171020 -0.260260 
0.196870 17.628800 -1.239050 -9.253748 -9.911394 -6.257800 -15.012808 12.074381 1.393921 9.530137 -0.325487 -6.236385 -6.803897 7.871855 19.829625 -0.432777 5.154399 2.692636 0.298810 -0.007610 0.291790 18.975968 -7.392333 7.297565 -9.920986 25.149464 -68.081882 11.821293 -28.072318 88.419949 -3.276522 -16.080294 -0.582130 -0.014250 0.051220 0.184060 -4.831621 -2.253590 -9.070278 24.111610 -10.987201 33.654609 -9.581921 -3.664183 2.634179 3.254587 -6.011605 -8.622556 -17.530390 11.240952 57.600937 -4.268810 3.808650 -8.288430 -21.567163 -2.752049 1.019762 -38.378631 3.325487 -9.811563 -31.855720 -34.795097 5.798868 -3.576174 3.049238 0.724790 -0.081610 0.117730 -0.005900 14.665480 5.400011 3.285184 52.866998 3.438109 -10.727420 25.976424 25.830780 2.631826 2.252833 -1.176638 -0.190030 0.200500 0.169450 -0.253810 
0.225490 17.454860 -1.315380 -8.900194 -12.468804 -7.020262 -15.116535 12.219149 1.363128 9.023458 -0.425955 -9.493515 -5.757361 9.055005 26.744285 -0.341285 5.779230 2.430090 0.334070 0.048970 0.319530 18.870371 -7.084528 7.546922 -14.159032 26.610576 -71.456593 16.945637 -33.245248 89.470355 -3.653260 -17.236206 -0.788253 0.006770 0.023720 0.157050 -4.550299 -2.772729 -9.208518 22.764067 -10.385150 39.060245 -8.447957 -2.285539 -0.187891 3.355515 -6.663029 -8.642395 -19.607014 12.146125 58.112620 -3.868440 2.887130 -10.807440 -25.982412 -4.444196 0.475012 -38.016669 3.336398 -9.367344 -23.729141 -27.381645 2.222956 -3.537004 2.886518 0.758790 -0.132720 0.162290 0.000900 18.731755 8.568145 3.678414 51.002881 3.724030 -10.643437 20.333113 24.083461 1.493119 2.266200 -1.062488 -0.183370 0.254490 0.147970 -0.242760 
0.258110 17.264490 -1.379550 -9.204571 -11.128726 -7.594501 -15.192801 12.188466 1.296747 8.652778 -0.834321 -11.303865 -4.388631 9.424343 31.012182 -0.245030 6.185234 2.272297 0.351720 0.093240 0.309180 18.836528 -6.625705 7.918395 -22.979864 23.986285 -79.432774 27.216072 -42.339796 86.748973 -4.075692 -18.545067 -1.001110 0.017520 0.006170 0.133950 -4.379340 -3.271562 -9.376961 22.497169 -11.694500 42.391867 -8.270226 -2.669052 -1.749198 3.725264 -7.162376 -9.224674 -21.010191 12.779191 57.246531 -2.956350 2.242590 -12.291120 -29.842523 -7.518358 0.998002 -37.583615 4.088962 -8.779815 -15.064508 -21.660508 0.052850 -3.468747 2.804707 0.766450 -0.173330 0.188990 0.019190 21.915596 12.146565 4.605355 50.301801 3.259196 -11.441983 15.606027 25.076143 0.805624 2.250800 -1.025601 -0.168650 0.276640 0.126160 -0.218270 
